/* XPM */
static char *ill_tempered_clavier[] = {
/* columns rows colors chars-per-pixel */
"64 64 256 2 ",
"   c #020001",
".  c #0B0202",
"X  c #02020C",
"o  c #0A050B",
"O  c #0C0B0C",
"+  c #080A08",
"@  c #120502",
"#  c #140A04",
"$  c #150D0C",
"%  c #190907",
"&  c #1C1303",
"*  c #171409",
"=  c #090613",
"-  c #150D15",
";  c #181616",
":  c #0D101A",
">  c #230C06",
",  c #25140A",
"<  c #271709",
"1  c #281A16",
"2  c #30180F",
"3  c #2A2717",
"4  c #322313",
"5  c #382919",
"6  c #383418",
"7  c #2F210C",
"8  c #0D1321",
"9  c #231922",
"0  c #282625",
"q  c #392725",
"w  c #373224",
"e  c #333234",
"r  c #402B0C",
"t  c #58340D",
"y  c #472A18",
"u  c #48381C",
"i  c #583A1A",
"p  c #562F0B",
"a  c #683C11",
"s  c #452B23",
"d  c #473827",
"f  c #553B27",
"g  c #423835",
"h  c #603F24",
"j  c #3A4224",
"k  c #584218",
"l  c #694418",
"z  c #714C1A",
"x  c #4B452B",
"c  c #5B4928",
"v  c #58532A",
"b  c #5C4B32",
"n  c #564834",
"m  c #5B5238",
"M  c #4D4932",
"N  c #624B2A",
"B  c #6B5829",
"V  c #775729",
"C  c #664C34",
"Z  c #744E33",
"A  c #6C5C3D",
"S  c #695537",
"D  c #745534",
"F  c #735C3C",
"G  c #785937",
"H  c #724D2F",
"J  c #7A6639",
"K  c #716A35",
"L  c #524D46",
"P  c #675842",
"I  c #755A46",
"U  c #635D55",
"Y  c #696346",
"T  c #786847",
"R  c #7A754C",
"E  c #786B57",
"W  c #756E54",
"Q  c #945B1D",
"!  c #946318",
"~  c #875927",
"^  c #885B36",
"/  c #915E2A",
"(  c #8D6227",
")  c #996627",
"_  c #9C7329",
"`  c #886436",
"'  c #956936",
"]  c #8B773B",
"[  c #9B723B",
"{  c #977638",
"}  c #8F702C",
"|  c #A6752B",
" . c #A5733C",
".. c #A97835",
"X. c #B37A38",
"o. c #A66E2F",
"O. c #A8741D",
"+. c #C27F2C",
"@. c #876B46",
"#. c #976E45",
"$. c #877647",
"%. c #987848",
"&. c #867555",
"*. c #9A7A54",
"=. c #957757",
"-. c #906B53",
";. c #A67B4A",
":. c #A57E57",
">. c #B57F41",
",. c #907C6D",
"<. c #7F8867",
"1. c #B88329",
"2. c #A98236",
"3. c #B78538",
"4. c #BF923C",
"5. c #9E8439",
"6. c #C2852D",
"7. c #CC8C35",
"8. c #CC853B",
"9. c #CB8C3B",
"0. c #C68738",
"q. c #D28B3A",
"w. c #D68A3B",
"e. c #CC943B",
"r. c #C7943B",
"t. c #D2953C",
"y. c #D6993C",
"u. c #DEA038",
"i. c #988549",
"p. c #9B8757",
"a. c #9C935B",
"s. c #85834E",
"d. c #A88648",
"f. c #B68948",
"g. c #AB914B",
"h. c #BC9649",
"j. c #A88757",
"k. c #B48955",
"l. c #AA9256",
"z. c #B69758",
"x. c #BBA354",
"c. c #978964",
"v. c #9B9273",
"b. c #948C6F",
"n. c #AB8763",
"m. c #B48A65",
"M. c #AB9766",
"N. c #B79A64",
"B. c #A59478",
"V. c #AD8E72",
"C. c #BAA367",
"Z. c #AAA179",
"A. c #BAA776",
"S. c #B5AF73",
"D. c #C78B46",
"F. c #D28E45",
"G. c #CD9345",
"H. c #CC9A44",
"J. c #CC954A",
"K. c #C8974A",
"L. c #D39544",
"P. c #DB9443",
"I. c #D49B44",
"U. c #DB9C43",
"Y. c #D59C4C",
"T. c #DB9C4A",
"R. c #D5934A",
"E. c #C49C5C",
"W. c #C99B58",
"Q. c #DC9D53",
"!. c #D59A59",
"~. c #C68E56",
"^. c #E09D4A",
"/. c #E09742",
"(. c #DCA34C",
"). c #D9A346",
"_. c #C9A45A",
"`. c #DBA453",
"'. c #DDAB55",
"]. c #DDAD5D",
"[. c #D4A658",
"{. c #DBB259",
"}. c #CCA952",
"|. c #E2AA4B",
" X c #E7A84C",
".X c #E5AC53",
"XX c #E3AE5B",
"oX c #E7A853",
"OX c #E4B35D",
"+X c #E9B557",
"@X c #EEB14C",
"#X c #C49764",
"$X c #CC9A71",
"%X c #C3A462",
"&X c #CCA464",
"*X c #CAAB66",
"=X c #CDAA6D",
"-X c #C6A56B",
";X c #D4AC63",
":X c #D1AC6B",
">X c #D6A766",
",X c #CAB169",
"<X c #D4B26D",
"1X c #DAB567",
"2X c #C9A874",
"3X c #D3AB76",
"4X c #CBB476",
"5X c #D4B573",
"6X c #DAB371",
"7X c #DCBD75",
"8X c #DCBC7C",
"9X c #D5B67A",
"0X c #EAAE68",
"qX c #E6B965",
"wX c #E7BD77",
"eX c #EEB76C",
"rX c #EEC15E",
"tX c #D9C576",
"yX c #D1C172",
"uX c #EDC46D",
"iX c #EBC264",
"pX c #F4C76B",
"aX c #EAC272",
"sX c #E6C378",
"dX c #F3C474",
"fX c #F6C97A",
"gX c #F9D479",
"hX c #E9D374",
"jX c #BCB888",
"kX c #B4A98E",
"lX c #A09083",
"zX c #CABC86",
"xX c #D7BA83",
"cX c #CDB78E",
"vX c #E8BE86",
"bX c #C3BDA2",
"nX c #C9C487",
"mX c #D9C588",
"MX c #D5C893",
"NX c #D8D190",
"BX c #E6C684",
"VX c #E7D68D",
"CX c #F9D887",
"ZX c #E8D798",
"AX c #F5D997",
"SX c #EECC90",
"DX c #F9E59A",
"FX c #FCE188",
"GX c #DCD6A9",
"HX c #D0C8A9",
"JX c #EBDCA6",
"KX c #E7DBAF",
"LX c #F8E6A4",
"PX c #F5E5AD",
"IX c #FEF1CA",
"UX c None",
/* pixels */
"UXUXUXUXUXUXUXUXUXUXUXUXUXUXUXUXUXUXUXUXUXUXUXUXUXUXUXUXUXUXUXUXUXUXUXUXUXUXUXUXUXUXUXUXUXUXUXUXUXUXUXUXUXUXUXUXUXUXUXUXUXUXUXUX",
"UXUXUXUXUXUXUXUXUXUXUXUXUXUXUXUXUXUXUXUXUXUXUXUXUXUXUXUXUXUXUXUXUXUXUXUXUXUXUXUXUXUXUXUXUXUXUXUXUXUXUXUXUXUXUXUXUXUXUXUXUXUXUXUX",
"UXUXUXUXUXUXUXUXUXUXUXUXUXUXUXUXUXUXUXUXUXUXUXUXUXUXUXUXUXUXUXUXUXUXUXUXUXUXUXUXUXUXUXUXUXUXUXUXUXUXUXUXUXUXUXUXUXUXUXUXUXUXUXUX",
"UXUXUXUXUXUXUXUXUXUXUXUXUXUXUXUXUXUXUXUXUXUXUXUXUXUXUXUXUXUXUXUXUXUXUXUXUXUXUXUXUXUXUXUXUXUXUXUXUXUXUXUXUXUXUXUXUXUXUXUXUXUXUXUX",
"UXUXUXUXUXUXUXUXUXUXUXUXUXUXUXUXUXUXUXUXUXUXUXUXUXUXUXUXUXUXUXUXUXUXUXUXUXUXUXUXUXUXUXUXUXUXUXUXUXUXUXUXUXUXUXUXUXUXUXUXUXUXUXUX",
"UXUXUXUXUXUXUXUXUXUXUXUXUXUXUXUXUXUXUXUXUXUXUXUXUXUXUXUXUXUXUXUXUXUXUXUXUXUXUXUXUXUXUXUXUXUXUXUXUXUXUXUXUXUXUXUXUXUXUXUXUXUXUXUX",
"UXUXUXUXUXUXUXUXUXUXUXUXUXUXUXUXUXUXUXUXUXUXUXUXUXUXUXUXUXUXUXUXUXUXUXUXUXUXUXUXUXUXUXUXUXUXUXUXUXUXUXUXUXUXUXUXUXUXUXUXUXUXUXUX",
"UXUXUXUXUXUXUXUXUXUXUXUXUXUXUXUXUXUXUXUXUXUXUXUXUXUXUXUXUXUXUXUXUXUXUXUXUXUXUXUXUXUXUXUXUXUXUXUXUXUXUXUXUXUXUXUXUXUXUXUXUXUXUXUX",
"UXUXUXUXUXUXUXUXUXUXUXUXUXUXUXUXUXUXUXUXUXUXUXUXUXUXUXUXUXUXUXUXUXUXUXUXUXUXUXUXUXUXUXUXUXUXUXUXUXUXUXUXUXUXUXUXUXUXUXUXUXUXUXUX",
"UXUXUXUXUXUXUXUXUXUXUXUXUXUXUXUXUXUXUXUXUXUXUXUXUXUXUXUXUXUXUXUXUXUXUXUXUXUXUXUXUXUXUXUXUXUXUXUXUXUXUXUXUXUXUXUXUXUXUXUXUXUXUXUX",
"UXUXUXUXUXUXUXUXUXUXUXUXUXUXUXUXUXUXUXUXUXUXUXUXUXUXUXUXUXUXUXUXUXUXUXUXUXUXUXUXUXUXUXUXUXUXUXUXUXUXUXUXUXUXUXUXUXUXUXUXUXUXUXUX",
"UXUXUXUXUXUXUXUXUXUXUXUXUXUXUXUXUXUXUXUXUXUXUXUXUXUXUXUXUXUXUXUXUXUXUXUXUXUXUXUXUXUXUXUXUXUXUXUXUXUXUXUXUXUXUXUXUXUXUXUXUXUXUXUX",
"UXUXUXUXUXUXUXUXUXUXUXUXUXUXUXUXUXUXUXUXUXUXUXUXUXUXUXUXUXUXUXUXUXUXUXUXUXUXUXUXUXUXUXUXUXUXUXUXUXUXUXUXUXUXUXUXUXUXUXUXUXUXUXUX",
"UXUXUXUXUXUXUXUXUXUXUXUXUXUXUXUXUXUXUXUXUXUXUXUXUXUXUXUXUXUXUXUXUXUXUXUXUXUXUXUXUXUXUXUXUXUXUXUXUXUXUXUXUXUXUXUXUXUXUXUXUXUXUXUX",
"UXUXUXUXUXUXUXUXUXUXUXUXUXUXUXUXUXUXUXUXUXUXUXUXUXUXUXUXUXUXUXUXUXUXUXUXUXUXUXUXUXUXUXUXUXUXUXUXUXUXUXUXUXUXUXUXUXUXUXUXUXUXUXUX",
"UXUXUXUXUXUXUXUXUXUXUXUXUXUXUXUXUXUXUXUXUXUXUXUXUXUXUXUXUXUXUXUXUXUXUXUXUXUXUXUXUXUXUXUXUXUXUXUXUXUXUXUXUXUXUXUXUXUXUXUXUXUXUXUX",
"UXUX=X5X5X6X6X5XmXzXJX,X4X,X_._._.5X5XsXBX8X8X:X%X&X6X9XzXZXmXxX*X*X[.;X;X;X&X=X3X9XxXBX,X7X,X%X%X%X*XmXnXKXNXmX<X:X;X;X].1X*XUX",
"UX6XfXfXsXsXwXBXa.M GXu J VX1XiXaX<Xk -Xj.i sX7X9XwXsXB T MX5 S.BXsXuXuXuXeX7XBX8XV %.tXr E.sX7XtX7XtXC.3 KXY ` BXsXwXaXuXaXsXUX",
"UX1XuXpXBXwX6XW.I w GX& v x.,X,Xx.g.4 S.R 4 g.%X*X_.N.d T cX# { _.6XqXdXpXuX:X_.g.r &.MX, j._.=X<X}.x.$.& GXb c h.>XqXaXeXwX<XUX",
"UXg.CXCXDX-Xk.z.P x GX$ c { g.x.5.l.3 nXY w ] 5.l.d.n.d E kX# %.d.j.N.CXCXCX;.d.i.w E MX* n.f.&X*Xx.g.T % GXm b z.z.h.FXfXCXz.UX",
"UXk VXgXLXF t i.m n HX- d ` V V ] $.; NXn 0 J z D ` *.5 b.Z.; T ` r $.LXCXAXr B $.w E MX* *.) %.[ } %.F # HXP M d.k v PXCXAXS UX",
"UXb LXCXLXn 2 N.M Y kX; 1 #.V J l.$.* ZXg = N J l ^ -.@ b.v.+ m ` < A DXVXZX> N $.1 E nX& I f.' [ { M.f # cXY q d.p x LXSXAXd UX",
"UXT FXgXAXd l 4Xx R v.- 4 n.#.%.C.$.* NXw o ` %.` ;.:.# lXc.+ S *.u B DXfXNX, I =., E nX# T =Xk.k.k.3Xf # jXY 4 -XH s ZXCXLXb UX",
"UX` FXgXVX4 Z :X3 a.&.o 5 k.' #.z.J < VX3 $ ` ) '  .*.@ B.R . A :.s S CXpXBX> D =.> Y nX@ I =Xf.d.d.$Xf @ A.Y 4 W.Z 5 SXCXFXS UX",
"UXd.gXfXtX> @.6X& S.Y = u m.' { l.S 7 NX1 $ :.o.` ;.%.. Z.K   F ;.y B gXpXBX, G *.& P nX+ I &X2...;.-Xf % Z.W < W.Z < hXgXFXD UX",
"UX%XpXgX2X% #.>X$ nXU = x m./ [ C.x j tX3 : j.) ` d.&.. jXK   Y %.5 K gXrXtX& H %.& Y nXO P *X......_.b $ Z.<.* z.Z % tXpXgXG UX",
"UX<XrXgXN.> %.-X$ j 0 X c k./ [ 2Xx ; v 8 8 n./ ( d.@.X w 3   A :.5 J pX+X8X< D c.$ 3 c + I &X| ....E.n X j j ; z.G % yXrXgX^ UX",
"UXsXhXFXp., j.V.= O : X A d.) ..=Xd 8 ; : ; z./ ~ 2.T X $ 8 . F -.s 5.FXiXNX2 ~ :.: X $   Y _...3...x.m X * + $ z.G $ 9XpXCX#.UX",
"i J $.s.v k %Xp.# kXg X &.h.2.2.:X5 g kX8 ; %X>.X.r.J   v.U   ` ;.S 6 J K Y 5 [ :.= L v.. P >XJ.J.f._.m X kXL X l.%.5 J ] i.N i ",
"b # @   . n.SX-.< nXw X =.Y.[.K.<X4 M 4XO 9 _.F.G.K.F   kXP   [ wX2X# . #   I vXc.X b -X. P 6XQ.`.H.!.F   kXU X j.vX-.@ # & 7 @.",
"UXUXUXB.n.$X0XI 3 yX1 = =.Y.}.K.&X4 S S.# q ~.6.0.h.H   C.v   ] K.>XV.lX=.A.&X!.i.X k }.. P >XF.Y.r.K.S   M.Y   j._.3XV.,.b UXUX",
"UXUXUX1XOXF.>XP x tX& - j.r.K.f.z.$ W M.. q ~.9.9.D.C   A.n   %.D.Q.0X$Xj.pX).3.i.X c [.. P [.R.I.I.R.I X a.R   i.0.`.vX$XUXUXUX",
"UXUXUX+X(.t.*XM M S.& 1 z.I.H.4.l.- E Z.. s ~.8.D.D.N o kXM . [ K.Y.(.k.;.+X).3.*.X M N.# C !.R.I.I.L.I X b.&.  p.G.U.+XW.UXUXUX",
"UXUXUXuX;XJ.*X3 ; 5 $ ; %XY.J.H.k.- 0 q % s !.P.F.J.f = 3 ; . { Y.Q.Q.m.;.+XY.R.;.= 0 w - C !.T.).I.P.~ = q 6 . -.K.`.+X_.UXUXUX",
"UXUX%.aX,XOXsX5 0 0 * 6 7X(.H.'.z.* 8 9 0 D qXR.F.].D ; w e 3 ~.(.r.Y.m.>.+XQ.Q.f.2 9 0 ; D 0XY.e.L.oX#.9 0 0 > *.:X}..X[.UXUXUX",
"UXUXz.dX[.{.wX<XzXZX$.3XOXY.H.y.W.-XM.:.wX[.L.0.F.R.9XV 9X9X&X`.0.0.Y.m.;. XU.q.9.~.#X2XC 0XQ.F.e.9.F.XX-.V.$X#XK.K.L.(.[.UXUXUX",
"UXUXC.eX'.].'.{.1XtXB wX`.Q.L.y.H.0Xf...oXU.G.7.D.F.!.a Y.).^.(.t.9.^.:.' oXT.G.8.9.q.Y.l .X/.t.7.e.6.u. .:.(.F.6.3.e.U.'.UXUXUX",
"UXUX=XpX.X`.'.'.OX5Xi dXoXQ.R.t.J.XX{ o.|.t.L.7.8.F.!.a H.|.^.T.e.7..Xj.[ @X`.L.9.e.L.'.t ).u.t.w.t.7.u.o.;.XXT.I.H.U.(.{.UXUXUX",
"UXUX>X0X`.`.`.'.qX4Xa dX XT.U.t.J.{._ ..|.r.0.+.+.8.R.a H..XT.I.e.t.|.p._ @X).e.0.6.7.1Xt (./.U.P.^.P.@X .#.0XR.r.H.I.|.qXUXUXUX",
"UXUX>XXXU.`..X`.].C.z dXoXT.L.L.Y.OX' ..|.t.r.0.8.8.!.l [.).T.I.r.r..X:. . XI.L.q.7.q.OXt (.P.y.w././. X .^ XX7.e.H.t.).qXUXUXUX",
"UXUX{.'.|.|.'.'.qXN.V pX.X).I.L.K.OX^ f.^.w.9.6.8.8.!.a Q././.q.6.7.oX;.X.|.T.L.0.6.8.XXp U.t.q.q.q.q.@X ./ qX9.I.I.y.).iXUXUXUX",
"UXUXiXOX.X.X{.{.pXa.$.pX|.|.y.L.).eX^ J.oX^.U.w.w.P.!.~ 0X/.^.q.6.q.+X#.f.@XY.T.9.7.^.wXh `.P.9.8.r.7.). .` qXG.r.4.t.Y.fXUXUXUX",
"UX@.uXK.K.D.f.D._.F $.}.1.1.O.| 3.f.N ;.X...! Q Q / ' i >.X.o.) ! o.3.G ~ | ) o.) o.X.d.y ) ! ( Q ~ ( O.V h f.X._ { | _ _.G UXUX",
"UXD C.E.=XvXxX2X-XJ p.*X,X6X6XN.k.d.H N.#X=X8XxXxX3Xm.J 2X9X8XxX9X9X3X-.*.:X8XxX3XxX3XN.n 4X=XmXmXmX9X5Xn.F C.=X,X4X2X%X2X@.UXUX",
"UXF JXZXi.F @.A.PXM.a.VX,X$.D i.4XwX} 8XAXA.] T a.ZXBXd.AX4X%.c $.A.AXk.E.VXj.D N %.nXNXV JXNXl.b T l.AXC.i.VXg.` f I C.SX{ UXUX",
"UXE IX&.c.C c.T cXZXnX4XB c.k a.] AXz.LX4Xi.&.R b.a.LXmXZXB p.d B.T MX9X9XN.$.&.P B.c.JXR KX$.a.x ,.R S.zXzXmXB c.f c.$.ZXa.UXUX",
"UXUXbX5 UXUXUXUXUXUXUXUXUXUXUXUXUXUXUXUXUXUXUXUXUXUXUXUXUXUXUXUXUXUXUXUXUXUXUXUXUXUXUXUXUXUXUXUXUXUXUXUXUXUXUXUXUXUXUXUXUXUXUXUX",
"UXUXUXUXUXUXUXUXUXUXUXUXUXUXUXUXUXUXUXUXUXUXUXUXUXUXUXUXUXUXUXUXUXUXUXUXUXUXUXUXUXUXUXUXUXUXUXUXUXUXUXUXUXUXUXUXUXUXUXUXUXUXUXUX",
"UXUXUXUXUXUXUXUXUXUXUXUXUXUXUXUXUXUXUXUXUXUXUXUXUXUXUXUXUXUXUXUXUXUXUXUXUXUXUXUXUXUXUXUXUXUXUXUXUXUXUXUXUXUXUXUXUXUXUXUXUXUXUXUX",
"UXUXUXUXUXUXUXUXUXUXUXUXUXUXUXUXUXUXUXUXUXUXUXUXUXUXUXUXUXUXUXUXUXUXUXUXUXUXUXUXUXUXUXUXUXUXUXUXUXUXUXUXUXUXUXUXUXUXUXUXUXUXUXUX",
"UXUXUXUXUXUXUXUXUXUXUXUXUXUXUXUXUXUXUXUXUXUXUXUXUXUXUXUXUXUXUXUXUXUXUXUXUXUXUXUXUXUXUXUXUXUXUXUXUXUXUXUXUXUXUXUXUXUXUXUXUXUXUXUX",
"UXUXUXUXUXUXUXUXUXUXUXUXUXUXUXUXUXUXUXUXUXUXUXUXUXUXUXUXUXUXUXUXUXUXUXUXUXUXUXUXUXUXUXUXUXUXUXUXUXUXUXUXUXUXUXUXUXUXUXUXUXUXUXUX",
"UXUXUXUXUXUXUXUXUXUXUXUXUXUXUXUXUXUXUXUXUXUXUXUXUXUXUXUXUXUXUXUXUXUXUXUXUXUXUXUXUXUXUXUXUXUXUXUXUXUXUXUXUXUXUXUXUXUXUXUXUXUXUXUX",
"UXUXUXUXUXUXUXUXUXUXUXUXUXUXUXUXUXUXUXUXUXUXUXUXUXUXUXUXUXUXUXUXUXUXUXUXUXUXUXUXUXUXUXUXUXUXUXUXUXUXUXUXUXUXUXUXUXUXUXUXUXUXUXUX",
"UXUXUXUXUXUXUXUXUXUXUXUXUXUXUXUXUXUXUXUXUXUXUXUXUXUXUXUXUXUXUXUXUXUXUXUXUXUXUXUXUXUXUXUXUXUXUXUXUXUXUXUXUXUXUXUXUXUXUXUXUXUXUXUX",
"UXUXUXUXUXUXUXUXUXUXUXUXUXUXUXUXUXUXUXUXUXUXUXUXUXUXUXUXUXUXUXUXUXUXUXUXUXUXUXUXUXUXUXUXUXUXUXUXUXUXUXUXUXUXUXUXUXUXUXUXUXUXUXUX",
"UXUXUXUXUXUXUXUXUXUXUXUXUXUXUXUXUXUXUXUXUXUXUXUXUXUXUXUXUXUXUXUXUXUXUXUXUXUXUXUXUXUXUXUXUXUXUXUXUXUXUXUXUXUXUXUXUXUXUXUXUXUXUXUX",
"UXUXUXUXUXUXUXUXUXUXUXUXUXUXUXUXUXUXUXUXUXUXUXUXUXUXUXUXUXUXUXUXUXUXUXUXUXUXUXUXUXUXUXUXUXUXUXUXUXUXUXUXUXUXUXUXUXUXUXUXUXUXUXUX",
"UXUXUXUXUXUXUXUXUXUXUXUXUXUXUXUXUXUXUXUXUXUXUXUXUXUXUXUXUXUXUXUXUXUXUXUXUXUXUXUXUXUXUXUXUXUXUXUXUXUXUXUXUXUXUXUXUXUXUXUXUXUXUXUX",
"UXUXUXUXUXUXUXUXUXUXUXUXUXUXUXUXUXUXUXUXUXUXUXUXUXUXUXUXUXUXUXUXUXUXUXUXUXUXUXUXUXUXUXUXUXUXUXUXUXUXUXUXUXUXUXUXUXUXUXUXUXUXUXUX",
"UXUXUXUXUXUXUXUXUXUXUXUXUXUXUXUXUXUXUXUXUXUXUXUXUXUXUXUXUXUXUXUXUXUXUXUXUXUXUXUXUXUXUXUXUXUXUXUXUXUXUXUXUXUXUXUXUXUXUXUXUXUXUXUX",
"UXUXUXUXUXUXUXUXUXUXUXUXUXUXUXUXUXUXUXUXUXUXUXUXUXUXUXUXUXUXUXUXUXUXUXUXUXUXUXUXUXUXUXUXUXUXUXUXUXUXUXUXUXUXUXUXUXUXUXUXUXUXUXUX",
"UXUXUXUXUXUXUXUXUXUXUXUXUXUXUXUXUXUXUXUXUXUXUXUXUXUXUXUXUXUXUXUXUXUXUXUXUXUXUXUXUXUXUXUXUXUXUXUXUXUXUXUXUXUXUXUXUXUXUXUXUXUXUXUX",
"UXUXUXUXUXUXUXUXUXUXUXUXUXUXUXUXUXUXUXUXUXUXUXUXUXUXUXUXUXUXUXUXUXUXUXUXUXUXUXUXUXUXUXUXUXUXUXUXUXUXUXUXUXUXUXUXUXUXUXUXUXUXUXUX"
};
