/* XPM */
static char * mouthpiece_48x48_xpm[] = {
"48 48 609 2",
"  	c None",
". 	c #969597",
"+ 	c #1E1D23",
"@ 	c #292A35",
"# 	c #595D65",
"$ 	c #D3D1C8",
"% 	c #B1AFAB",
"& 	c #2C282E",
"* 	c #24232F",
"= 	c #2E303E",
"- 	c #293441",
"; 	c #45505A",
"> 	c #5A5E63",
", 	c #52565A",
"' 	c #868183",
") 	c #C7C1B8",
"! 	c #CFC9B9",
"~ 	c #CFC9BC",
"{ 	c #2E2926",
"] 	c #1D1B25",
"^ 	c #2B3A47",
"/ 	c #2F4052",
"( 	c #2A394E",
"_ 	c #272E35",
": 	c #1D2125",
"< 	c #15171B",
"[ 	c #0F0F11",
"} 	c #1D1B19",
"| 	c #5E5D5B",
"1 	c #6E6F6D",
"2 	c #B0A7A4",
"3 	c #D4C7B9",
"4 	c #D3C7AF",
"5 	c #C6BBA4",
"6 	c #2F3028",
"7 	c #182124",
"8 	c #25323E",
"9 	c #303F52",
"0 	c #33435C",
"a 	c #2D384A",
"b 	c #1B232A",
"c 	c #12171C",
"d 	c #0E1215",
"e 	c #060908",
"f 	c #090B09",
"g 	c #0D100D",
"h 	c #262B28",
"i 	c #424744",
"j 	c #585C5B",
"k 	c #928E8A",
"l 	c #D0C7C1",
"m 	c #D6C2B0",
"n 	c #D8C8AD",
"o 	c #D5CCB6",
"p 	c #3A372F",
"q 	c #161B1C",
"r 	c #1C2732",
"s 	c #2B384A",
"t 	c #33425B",
"u 	c #2E3D5B",
"v 	c #1D2935",
"w 	c #182227",
"x 	c #0E171A",
"y 	c #0C1312",
"z 	c #0C1110",
"A 	c #0A100F",
"B 	c #0F1514",
"C 	c #151B1B",
"D 	c #363C3D",
"E 	c #8B8683",
"F 	c #C6BFB9",
"G 	c #D1BE9E",
"H 	c #D1BC9A",
"I 	c #C9BBA2",
"J 	c #565044",
"K 	c #181816",
"L 	c #1D252D",
"M 	c #222E41",
"N 	c #293850",
"O 	c #2E405A",
"P 	c #293B4F",
"Q 	c #1A2830",
"R 	c #121E21",
"S 	c #101618",
"T 	c #0C1113",
"U 	c #0A0F11",
"V 	c #43484B",
"W 	c #464B4F",
"X 	c #33383D",
"Y 	c #282C28",
"Z 	c #868175",
"` 	c #C1B9A5",
" .	c #D0C0A3",
"..	c #D1B999",
"+.	c #D7C3A9",
"@.	c #635645",
"#.	c #15130F",
"$.	c #141A21",
"%.	c #1B2838",
"&.	c #2A3B50",
"*.	c #31455D",
"=.	c #293F57",
"-.	c #222F3C",
";.	c #181D21",
">.	c #11161A",
",.	c #303539",
"'.	c #6B7076",
").	c #4E5358",
"!.	c #0E1212",
"~.	c #0D120D",
"{.	c #1B201B",
"].	c #5D615C",
"^.	c #837E75",
"/.	c #BEB19C",
"(.	c #CBB799",
"_.	c #CEB694",
":.	c #D6C2A7",
"<.	c #8E8271",
"[.	c #0F0B05",
"}.	c #14191E",
"|.	c #192633",
"1.	c #26384A",
"2.	c #2F445A",
"3.	c #31425B",
"4.	c #242F43",
"5.	c #353A43",
"6.	c #82878E",
"7.	c #81858D",
"8.	c #20252C",
"9.	c #080C0C",
"0.	c #090D0C",
"a.	c #070C09",
"b.	c #070C07",
"c.	c #2E332D",
"d.	c #7C746B",
"e.	c #C6B7A3",
"f.	c #CBB596",
"g.	c #D7BA95",
"h.	c #D2BEA3",
"i.	c #746759",
"j.	c #1A140E",
"k.	c #191B1E",
"l.	c #1A2430",
"m.	c #253449",
"n.	c #324157",
"o.	c #40485D",
"p.	c #A1A1B5",
"q.	c #ACADBA",
"r.	c #727580",
"s.	c #0F1316",
"t.	c #0E1213",
"u.	c #090D0D",
"v.	c #0A0E0D",
"w.	c #0B0F0D",
"x.	c #0D110E",
"y.	c #131812",
"z.	c #80857F",
"A.	c #6B625A",
"B.	c #B9AA9A",
"C.	c #CDB498",
"D.	c #DBBC9A",
"E.	c #DCC4A4",
"F.	c #9E9187",
"G.	c #1C140F",
"H.	c #1A191C",
"I.	c #171D29",
"J.	c #1C2935",
"K.	c #717884",
"L.	c #EAE8F4",
"M.	c #B3ADBA",
"N.	c #434D58",
"O.	c #121C22",
"P.	c #101416",
"Q.	c #0E1214",
"R.	c #0C1011",
"S.	c #0B0F0F",
"T.	c #0C100E",
"U.	c #080C08",
"V.	c #131814",
"W.	c #252926",
"X.	c #535756",
"Y.	c #6A6863",
"Z.	c #AEA598",
"`.	c #CDBAA1",
" +	c #DBC2A0",
".+	c #E1C9A7",
"++	c #A69788",
"@+	c #22120F",
"#+	c #151615",
"$+	c #101A1E",
"%+	c #CBCFD6",
"&+	c #E7DFE5",
"*+	c #D2C6CE",
"=+	c #34414E",
"-+	c #192B3D",
";+	c #182433",
">+	c #11161C",
",+	c #0D1110",
"'+	c #0C100F",
")+	c #080D0C",
"!+	c #575B5C",
"~+	c #75716A",
"{+	c #B2A699",
"]+	c #D6C5AC",
"^+	c #DCC8A7",
"/+	c #DBD1B5",
"(+	c #CCC8B4",
"_+	c #10150E",
":+	c #424F4D",
"<+	c #DCE1E5",
"[+	c #EADEE4",
"}+	c #555461",
"|+	c #363C4F",
"1+	c #2D384F",
"2+	c #26324B",
"3+	c #172233",
"4+	c #12171E",
"5+	c #141819",
"6+	c #0F1314",
"7+	c #0C1012",
"8+	c #070B0D",
"9+	c #43474A",
"0+	c #4B4F50",
"a+	c #45494A",
"b+	c #585249",
"c+	c #A99E8D",
"d+	c #D5C2A7",
"e+	c #E6CEAA",
"f+	c #CFB996",
"g+	c #C9C0A8",
"h+	c #474E4F",
"i+	c #8B8D97",
"j+	c #7B7783",
"k+	c #0B121D",
"l+	c #1F2535",
"m+	c #3C455E",
"n+	c #394563",
"o+	c #334057",
"p+	c #2A3440",
"q+	c #1F252C",
"r+	c #181E22",
"s+	c #13161A",
"t+	c #0B0F13",
"u+	c #494C52",
"v+	c #5F6266",
"w+	c #494D4E",
"x+	c #101415",
"y+	c #323637",
"z+	c #5B5F60",
"A+	c #726E65",
"B+	c #BEB29F",
"C+	c #DAC3A3",
"D+	c #D6B994",
"E+	c #C1AA93",
"F+	c #4D4D54",
"G+	c #5D6E8F",
"H+	c #182426",
"I+	c #051313",
"J+	c #131D20",
"K+	c #1E2938",
"L+	c #283553",
"M+	c #2D3D5D",
"N+	c #3D4D65",
"O+	c #2D3A4B",
"P+	c #1D293A",
"Q+	c #0E1620",
"R+	c #32353C",
"S+	c #83868E",
"T+	c #878A8C",
"U+	c #111516",
"V+	c #0A0E0F",
"W+	c #080C0D",
"X+	c #494C4D",
"Y+	c #76766D",
"Z+	c #A09D8D",
"`+	c #AC9D88",
" @	c #897769",
".@	c #5A5259",
"+@	c #615F6A",
"@@	c #3B3C31",
"#@	c #0D1608",
"$@	c #071107",
"%@	c #101A1B",
"&@	c #172134",
"*@	c #23334E",
"=@	c #3C516D",
"-@	c #3F536E",
";@	c #38485E",
">@	c #303A49",
",@	c #7A818A",
"'@	c #9EA1A6",
")@	c #474B4B",
"!@	c #0B0F10",
"~@	c #0A0D0E",
"{@	c #1C1E1D",
"]@	c #636564",
"^@	c #69726D",
"/@	c #868C89",
"(@	c #7D7D82",
"_@	c #C0BABE",
":@	c #A1938A",
"<@	c #E7DDDD",
"[@	c #403F3C",
"}@	c #0A0F06",
"|@	c #0B100B",
"1@	c #13181D",
"2@	c #161F29",
"3@	c #26384D",
"4@	c #42546D",
"5@	c #465167",
"6@	c #8E92A0",
"7@	c #9697A0",
"8@	c #7D858D",
"9@	c #00090F",
"0@	c #0E1314",
"a@	c #0D1012",
"b@	c #0C0D0C",
"c@	c #101211",
"d@	c #080C0B",
"e@	c #5C6160",
"f@	c #838B8A",
"g@	c #6C777C",
"h@	c #646E7B",
"i@	c #C0BBC1",
"j@	c #C7BAA8",
"k@	c #A8987D",
"l@	c #E2D6C6",
"m@	c #5D5554",
"n@	c #08080A",
"o@	c #0D0D0E",
"p@	c #111513",
"q@	c #162027",
"r@	c #26313E",
"s@	c #727783",
"t@	c #EDEBF4",
"u@	c #DAD9E5",
"v@	c #343A49",
"w@	c #142030",
"x@	c #182231",
"y@	c #14181F",
"z@	c #121617",
"A@	c #121414",
"B@	c #0E1211",
"C@	c #0A0F0E",
"D@	c #414B47",
"E@	c #696C71",
"F@	c #455054",
"G@	c #717984",
"H@	c #88838C",
"I@	c #827562",
"J@	c #9C8D61",
"K@	c #EEE3BC",
"L@	c #5E5449",
"M@	c #0E0C04",
"N@	c #090F08",
"O@	c #080F13",
"P@	c #373D40",
"Q@	c #F8F8F8",
"R@	c #EAE7EE",
"S@	c #6D6C7C",
"T@	c #394259",
"U@	c #33445E",
"V@	c #27354D",
"W@	c #222636",
"X@	c #171720",
"Y@	c #151718",
"Z@	c #131513",
"`@	c #0F1312",
" #	c #1A1F1D",
".#	c #5F6764",
"+#	c #4F5A57",
"@#	c #4A5956",
"##	c #727B7A",
"$#	c #4C4F50",
"%#	c #606C6A",
"&#	c #6F7681",
"*#	c #827B8B",
"=#	c #85766E",
"-#	c #A19065",
";#	c #D5C7BA",
">#	c #666152",
",#	c #060B05",
"'#	c #181D2C",
")#	c #B9BACC",
"!#	c #F4F3EF",
"~#	c #6D6974",
"{#	c #2A2E3E",
"]#	c #394660",
"^#	c #455879",
"/#	c #3A5071",
"(#	c #2E3C58",
"_#	c #293145",
":#	c #191D28",
"<#	c #16181D",
"[#	c #0E1210",
"}#	c #A3ABA8",
"|#	c #7F8885",
"1#	c #778985",
"2#	c #536864",
"3#	c #363F3E",
"4#	c #898888",
"5#	c #7A8987",
"6#	c #495353",
"7#	c #181C1D",
"8#	c #666C6D",
"9#	c #A7AAB7",
"0#	c #91889F",
"a#	c #827276",
"b#	c #87796E",
"c#	c #A7A194",
"d#	c #444447",
"e#	c #565866",
"f#	c #9A9AA4",
"g#	c #7E7A82",
"h#	c #0E0F17",
"i#	c #171D2C",
"j#	c #253347",
"k#	c #30445F",
"l#	c #3E5575",
"m#	c #465C7D",
"n#	c #3A4863",
"o#	c #353C4E",
"p#	c #2A2C33",
"q#	c #9CA0A0",
"r#	c #AFB6B4",
"s#	c #ACB2B1",
"t#	c #889291",
"u#	c #6C7A77",
"v#	c #172522",
"w#	c #B0B0B0",
"x#	c #6B7272",
"y#	c #748A87",
"z#	c #92A09F",
"A#	c #2F3535",
"B#	c #2C2D2F",
"C#	c #717374",
"D#	c #73747D",
"E#	c #948992",
"F#	c #BAB0B1",
"G#	c #BCB4B6",
"H#	c #868289",
"I#	c #7D7B7B",
"J#	c #3D3D38",
"K#	c #0F0E15",
"L#	c #0F151C",
"M#	c #141E24",
"N#	c #131F2C",
"O#	c #2F4054",
"P#	c #4A5E7C",
"Q#	c #5D6B86",
"R#	c #74798B",
"S#	c #929099",
"T#	c #D5D3D3",
"U#	c #C0C1BE",
"V#	c #ACB3B0",
"W#	c #ABABAD",
"X#	c #141B1A",
"Y#	c #758284",
"Z#	c #7A8A8A",
"`#	c #808B8D",
" $	c #A5A8AC",
".$	c #464347",
"+$	c #1D1A1D",
"@$	c #565B5F",
"#$	c #74767A",
"$$	c #9E98A0",
"%$	c #D7C8D4",
"&$	c #A2928E",
"*$	c #C3BBA0",
"=$	c #AEA493",
"-$	c #13110D",
";$	c #11171B",
">$	c #0D181E",
",$	c #12191F",
"'$	c #191C21",
")$	c #1B2937",
"!$	c #313F51",
"~$	c #666E81",
"{$	c #AEACBD",
"]$	c #DED4DC",
"^$	c #D7CBCD",
"/$	c #D5D1CE",
"($	c #D2D9D7",
"_$	c #303B3B",
":$	c #18191C",
"<$	c #828D91",
"[$	c #8B9497",
"}$	c #98999F",
"|$	c #9F99A0",
"1$	c #232227",
"2$	c #42464A",
"3$	c #54585B",
"4$	c #424445",
"5$	c #776E71",
"6$	c #A88F77",
"7$	c #B49764",
"8$	c #E8CDA2",
"9$	c #C3B59A",
"0$	c #14130C",
"a$	c #0F1519",
"b$	c #101620",
"c$	c #16171E",
"d$	c #1C1C1F",
"e$	c #272D38",
"f$	c #555864",
"g$	c #D9D3DE",
"h$	c #DFD2D9",
"i$	c #D9CBCC",
"j$	c #EDE5E5",
"k$	c #63656A",
"l$	c #040E16",
"m$	c #80898E",
"n$	c #91979D",
"o$	c #838289",
"p$	c #84888C",
"q$	c #717679",
"r$	c #999B9D",
"s$	c #5E5E60",
"t$	c #858686",
"u$	c #837B73",
"v$	c #D1A871",
"w$	c #E3B66D",
"x$	c #E0BE87",
"y$	c #C2B294",
"z$	c #171411",
"A$	c #10131D",
"B$	c #16171B",
"C$	c #131418",
"D$	c #1C1C21",
"E$	c #B4B3B9",
"F$	c #D0CAD1",
"G$	c #E8DDE5",
"H$	c #F2E9EA",
"I$	c #B1AEB4",
"J$	c #343848",
"K$	c #293344",
"L$	c #8D9498",
"M$	c #777D81",
"N$	c #858A8D",
"O$	c #6C6C6A",
"P$	c #837975",
"Q$	c #A68E78",
"R$	c #D2AF76",
"S$	c #E1B772",
"T$	c #DABD91",
"U$	c #AFA090",
"V$	c #0F1012",
"W$	c #161A1D",
"X$	c #101518",
"Y$	c #636569",
"Z$	c #CACACF",
"`$	c #BDBBC1",
" %	c #B5B3B6",
".%	c #B2B1B5",
"+%	c #181B27",
"@%	c #2C3549",
"#%	c #909192",
"$%	c #9C9EA1",
"%%	c #8D8A7E",
"&%	c #7B704D",
"*%	c #C0A872",
"=%	c #CCAE7D",
"-%	c #614F3C",
";%	c #1B2024",
">%	c #1A2023",
",%	c #1D2627",
"'%	c #ADB4B7",
")%	c #9DA0A4",
"!%	c #ACADB1",
"~%	c #D1D2D6",
"{%	c #202326",
"]%	c #131B27",
"^%	c #8F9283",
"/%	c #959079",
"(%	c #C6B394",
"_%	c #1E201F",
":%	c #1B2122",
"<%	c #192325",
"[%	c #788685",
"}%	c #919F9F",
"|%	c #9AA6A6",
"1%	c #B5B6BA",
"2%	c #414145",
"3%	c #080A0E",
"4%	c #212527",
"5%	c #888787",
"6%	c #2A2F2D",
"7%	c #283431",
"8%	c #748684",
"9%	c #7F9492",
"0%	c #8B9A9A",
"a%	c #07070C",
"b%	c #06050A",
"c%	c #505A57",
"d%	c #677974",
"e%	c #6F8581",
"f%	c #93A7A5",
"g%	c #202D2E",
"h%	c #13171A",
"i%	c #3A393D",
"j%	c #323E39",
"k%	c #737F7B",
"l%	c #465350",
"m%	c #0D1D1C",
"n%	c #182021",
"o%	c #69726F",
"p%	c #2B3632",
"q%	c #24302D",
"r%	c #585F5C",
"                                                                                                ",
"                                                                                                ",
"                                                                                                ",
"                                                                                                ",
"                                                                                                ",
"                                                                                                ",
"                                                                                                ",
"                                                                                                ",
"        . + @ #                                                                                 ",
"        $ % & * = - ; > ,                                                                       ",
"      ' ) ! ~ { ] ^ / ( _ : < [ } | 1                                                           ",
"        2 3 4 5 6 7 8 9 0 a b c d e f g h i j                                                   ",
"        k l m n o p q r s t u v w x y z A B C D                                                 ",
"          E F G H I J K L M N O P Q R S T U V W X Y                                             ",
"            Z `  ...+.@.#.$.%.&.*.=.-.;.>.,.'.).!.~.{.].                                        ",
"              ^./.(._.:.<.[.}.|.1.2.3.4.5.6.7.8.9.0.a.b.c.                                      ",
"                d.e.f.g.h.i.j.k.l.m.n.o.p.q.r.s.t.u.v.w.x.y.z.                                  ",
"                  A.B.C.D.E.F.G.H.I.J.K.L.M.N.O.P.Q.R.S.T.U.V.W.X.                              ",
"                    Y.Z.`. +.+++@+#+$+%+&+*+=+-+;+>+P.t.,+'+)+t.t.!+                            ",
"                      ~+{+]+^+/+(+_+:+<+[+}+|+1+2+3+4+5+6+7+P.8+9+0+a+                          ",
"                        b+c+d+e+f+g+h+i+j+k+l+m+n+o+p+q+r+s+t+u+v+w+x+y+z+                      ",
"                          A+B+C+D+E+F+G+H+I+J+K+L+M+N+O+P+Q+R+S+T+U+V+V+W+X+                    ",
"                            Y+Z+`+ @.@+@@@#@$@%@&@*@=@-@;@>@,@'@)@V+R.!@!@~@{@]@                ",
"                              ^@/@(@_@:@<@[@}@|@1@2@3@4@5@6@7@8@9@0@U+6+a@b@c@d@e@              ",
"                              f@g@h@i@j@k@l@m@n@o@p@q@r@s@t@u@v@w@x@y@z@A@c@B@,+C@D@            ",
"                                E@F@G@H@I@J@K@L@M@N@O@P@Q@R@S@T@U@V@W@X@Y@Z@`@ #.#+#@###        ",
"                                  $#%#&#*#=#-#;#>#,#'#)#!#~#{#]#^#/#(#_#:#<#[#}#|#1#2#@#3#      ",
"                              4#5#6#7#8#9#0#a#b#c#d#e#f#g#h#i#j#k#l#m#n#o#p#q#r#s#t#u#v#        ",
"                            w#x#y#z#A#B#C#D#E#F#G#H#I#J#K#L#M#N#-.O#P#Q#R#S#T#U#V#W#5+X#        ",
"                              Y#Z#`# $.$+$@$#$$$%$&$*$=$-$;$>$,$'$)$!$~${$]$^$/$($_$:$          ",
"                                <$[$}$|$1$2$3$4$5$6$7$8$9$0$a$b$c$d$e$f$g$h$i$j$k$l$            ",
"                                  m$n$o$p$q$r$s$t$u$v$w$x$y$z$A$B$C$D$E$F$G$H$I$J$K$            ",
"                                    L$M$N$      O$P$Q$R$S$T$U$V$W$X$Y$Z$`$ %.%+%@%              ",
"                                      #%$%          %%&%*%=%-%;%>%,%'%)%!%~%{%]%                ",
"                                                      ^%/%(%_%:%<%[%}%|%1%2%3%4%                ",
"                                                            5%6%7%8%9%0%q$a%b%                  ",
"                                                                c%d%e%f%g%h%i%                  ",
"                                                                  j%k%l%m%n%                    ",
"                                                                    o%p%q%                      ",
"                                                                        r%                      ",
"                                                                                                ",
"                                                                                                ",
"                                                                                                ",
"                                                                                                ",
"                                                                                                ",
"                                                                                                ",
"                                                                                                ",
"                                                                                                "};
